<?xml version="1.0" encoding="UTF-8"?>
<svg xmlns="http://www.w3.org/2000/svg" height="300px" width="300px" fill="#000000" data-name="Layer 1" viewBox="0 0 100 100" x="0px" y="0px">
   <title>1</title>
   <path d="M12.55316,84.60638H87.44678a7.55318,7.55318,0,0,0,7.55316-7.55316V34.15961a7.55325,7.55325,0,0,0-7.55322-7.55323H76.33856a8.29743,8.29743,0,0,1-8.10766-6.5332,5.94305,5.94305,0,0,0-5.80725-4.67956H37.57617a5.94315,5.94315,0,0,0-5.80725,4.67956,8.29734,8.29734,0,0,1-8.10767,6.5332H12.5531a7.55315,7.55315,0,0,0-7.55316,7.55317V77.05316A7.55317,7.55317,0,0,0,12.55316,84.60638ZM83.36163,32.30853a4.78724,4.78724,0,1,1-4.78723,4.78723A4.78722,4.78722,0,0,1,83.36163,32.30853Zm-33.36169-1.415A22.71289,22.71289,0,1,1,27.28705,53.60638,22.73831,22.73831,0,0,1,49.99994,30.89349ZM32.28705,53.60638A17.71289,17.71289,0,1,1,49.99994,71.31927,17.733,17.733,0,0,1,32.28705,53.60638Z" />
</svg>